<svg width="36" height="28" viewBox="0 0 36 28" fill="none" xmlns="http://www.w3.org/2000/svg">
<path d="M35.6779 4.14351L35.6887 23.5016C35.6887 25.7854 33.8245 27.656 31.5592 27.656L4.91789 27.6778C2.63094 27.6778 0.766703 25.8072 0.766703 23.5342L0.745026 4.17613C0.745026 1.88143 2.60927 0.0217507 4.88538 0.0217507L31.5375 0C33.8136 0 35.6779 1.84881 35.6779 4.14351Z" fill="#F6C859"/>
<path d="M14.2174 23.9802C14.0657 23.9802 13.9248 23.904 13.8598 23.7627C13.7622 23.5669 13.8381 23.3168 14.0332 23.2189C14.6185 22.9144 15.4097 22.3489 15.8757 21.381C16.461 20.1412 16.3093 18.7926 16.06 18.673C15.995 18.6404 15.7565 18.7709 15.6048 18.847C15.2254 19.0428 14.6943 19.3146 14.0874 19.0971C13.4912 18.8905 13.1986 18.3576 13.0577 18.0966C12.1364 16.4109 11.8546 12.039 12.8192 9.86396C13.1444 9.14619 13.5779 8.71117 14.1199 8.58067C14.6726 8.45016 15.1279 8.67855 15.4855 8.8743C15.7782 9.02656 15.9299 9.09181 16.0275 9.03743C16.4068 8.80905 16.396 7.41701 15.8649 6.3186C15.3988 5.33982 14.6076 4.7743 14.0223 4.48066C13.8272 4.38279 13.7405 4.13265 13.8489 3.9369C13.9465 3.74114 14.1957 3.65414 14.3908 3.76289C15.0845 4.12178 16.0383 4.79605 16.5911 5.98146C17.1438 7.14512 17.404 9.15706 16.4393 9.74433C15.9516 10.038 15.4855 9.79871 15.117 9.61383C14.8352 9.47245 14.5643 9.33107 14.3041 9.39632C13.9465 9.48332 13.708 9.88571 13.5563 10.212C12.7109 12.1152 12.9601 16.2478 13.7622 17.7268C13.9031 17.977 14.0657 18.2489 14.3475 18.3467C14.6185 18.4446 14.8786 18.325 15.2363 18.1401C15.5939 17.9552 15.9841 17.7595 16.4068 17.9552C17.3173 18.4011 17.2522 20.3478 16.6019 21.7398C16.0383 22.9252 15.0954 23.5995 14.4017 23.9584C14.3366 23.9693 14.2716 23.9802 14.2174 23.9802Z" fill="#7D662D"/>
<path d="M12.9926 10.5926H5.71994C5.49233 10.5926 5.31891 10.4077 5.31891 10.1902C5.31891 9.97269 5.49233 9.78781 5.7091 9.78781H12.9818C13.2094 9.78781 13.3828 9.97269 13.3828 10.1902C13.3937 10.4077 13.2203 10.5926 12.9926 10.5926Z" fill="#7D662D"/>
<path d="M12.9926 17.9008H5.71994C5.49233 17.9008 5.31891 17.716 5.31891 17.4985C5.31891 17.2701 5.50316 17.0961 5.71994 17.0961H12.9926C13.2203 17.0961 13.3937 17.2809 13.3937 17.4985C13.4045 17.716 13.2203 17.9008 12.9926 17.9008Z" fill="#7D662D"/>
<path d="M22.7041 23.9693C22.639 23.9693 22.574 23.9584 22.5198 23.9258C21.8261 23.5669 20.8723 22.8926 20.3196 21.7072C19.6584 20.3152 19.6042 18.3685 20.5038 17.9226C20.9265 17.7159 21.3275 17.9226 21.6744 18.0966C22.0429 18.2815 22.303 18.4011 22.5631 18.3032C22.8666 18.1945 23.04 17.8791 23.1484 17.6833C23.9505 16.2043 24.1889 12.0608 23.3435 10.1685C23.1918 9.84219 22.9533 9.42893 22.5957 9.3528C22.3789 9.29843 22.238 9.08092 22.2922 8.86341C22.3464 8.64591 22.5631 8.5154 22.7799 8.5589C23.3219 8.68941 23.7554 9.11355 24.0806 9.83132C25.056 12.0064 24.7742 16.3892 23.8529 18.064C23.712 18.325 23.4194 18.8579 22.8233 19.0645C22.2163 19.282 21.6852 19.0101 21.3059 18.8144C21.1541 18.7382 20.9157 18.6186 20.8506 18.6403C20.6122 18.76 20.4496 20.1085 21.0457 21.3483C21.5118 22.3271 22.303 22.8926 22.8883 23.1862C23.0834 23.2841 23.1701 23.5343 23.0617 23.73C22.9967 23.8931 22.8558 23.9693 22.7041 23.9693Z" fill="#7D662D"/>
<path d="M21.0783 8.9613C20.9048 8.9613 20.7531 8.85254 20.6989 8.68941C19.8318 6.07933 21.8586 4.06739 22.509 3.74113C22.7041 3.63238 22.9533 3.71938 23.0509 3.91514C23.1484 4.11089 23.0726 4.36103 22.8775 4.45891C22.5848 4.61116 20.7206 6.20984 21.4576 8.42841C21.5335 8.64591 21.4143 8.8743 21.1975 8.93955C21.165 8.9613 21.1216 8.9613 21.0783 8.9613Z" fill="#7D662D"/>
<path d="M31.1907 10.5817H23.918C23.6904 10.5817 23.5169 10.3968 23.5169 10.1793C23.5169 9.96183 23.7012 9.77695 23.918 9.77695H31.1907C31.4183 9.77695 31.5917 9.96183 31.5917 10.1793C31.5917 10.3968 31.4074 10.5817 31.1907 10.5817Z" fill="#7D662D"/>
<path d="M31.1907 17.8791H23.918C23.6904 17.8791 23.5169 17.6942 23.5169 17.4767C23.5169 17.2483 23.7012 17.0743 23.918 17.0743H31.1907C31.4183 17.0743 31.5917 17.2592 31.5917 17.4767C31.5917 17.7051 31.4183 17.8791 31.1907 17.8791Z" fill="#7D662D"/>
</svg>
